<svg xmlns="http://www.w3.org/2000/svg" height="120" width="120"><g fill="gray"><path d="M28.748 16.154l10.826-1.385h48.213l4.98 1.385-5.282 1.384L37.689 18zM28.296 102l8.79-.923 47.097-.673 8.282 1.134-2.333 1.135-54.48 1.173zM22.07 10.827L29.501 12h62.586l9.135-.923-9.286-1.385H29.653zM21.942 107.327l7.334-.712 59.38-.461 10.813 1.384-10.889 1.847h-58.4z"/><path d="M91.615 15.923L96 15.231s.486 3.64 1.385 5.077c.899 1.436 2.064 2.323 3.692 3.23 1.628.908 6 1.847 6 1.847s-5.042.97-7.385 0-3.814-4.042-4.615-5.539c-.801-1.497-.692-2.77-.692-2.77zM107.308 30.923l-1.385 3.692-.23 48 1.845 5.539.462-54zM106.831 87.115l.692 4.385s-3.64.486-5.077 1.385c-1.436.899-2.323 2.064-3.23 3.692-.908 1.628-1.846 6-1.846 6s-.971-5.042 0-7.385c.97-2.343 4.041-3.814 5.538-4.615 1.497-.801 2.77-.692 2.77-.692zM112.615 16.615l-.923 19.616-.692 54 2.538 8.307 1.154-8.307-.923-64.385zM8.308 13.846L7.154 44.77 5.538 79.846l1.616 17.539L9 83.538l.23-53.307zM12.692 26.77l-.461 58.845.23 3.923 1.847-10.153.461-38.77-.461-9.461zM31.73 15.938l-4.384-.692s-.485 3.64-1.384 5.077c-.9 1.436-2.065 2.323-3.693 3.23-1.628.908-6 1.847-6 1.847s5.042.97 7.385 0 3.814-4.042 4.615-5.539c.801-1.497.693-2.769.693-2.769zM13.861 87.346l-.692 4.385s3.64.485 5.077 1.384c1.437.9 2.323 2.065 3.23 3.693.908 1.628 1.847 6 1.847 6s.97-5.042 0-7.385-4.042-3.814-5.539-4.615c-1.496-.801-2.769-.693-2.769-.693z"/></g></svg>